#!OML:ASF E:\Steps\Project 1\Capture day 1\Session 2\Subject.ASF
:FULLY-SPECIFIED
:DEGREES
200
root 23.3448 16.2346 30.1782 -153.886 2.4171 177.184
lowerback -28.1613 -1.94634 -5.75942
upperback -0.707443 0.0985496 -1.28708
thorax 14.191 -0.0469485 1.84924
lowerneck -0.45379 -0.273163 -5.15315
upperneck 8.06213 -0.530898 10.7898
head 2.48386 0.10055 4.10705
rclavicle -4.27387e-015 1.51076e-014
rhumerus -37.0917 -18.4561 -79.0945
rradius 31.198
rwrist -1.44953
rhand -8.48683 -54.5317
rfingers 7.12502
rthumb 17.4404 -83.7693
lclavicle -4.27387e-015 1.51076e-014
lhumerus -30.5143 9.19985 77.8059
lradius 20.4776
lwrist -7.38827
lhand -22.3762 -10.3993
lfingers 7.12502
lthumb 4.04548 19.542
rfemur -21.7906 6.01867 21.1823
rtibia 11.3495
rfoot -24.3142 -5.43019
rtoes -29.2443
lfemur -43.3992 -10.5148 -17.939
ltibia 49.4588
lfoot -6.6043 3.02664
ltoes -24.1905
201
root 23.359 16.2338 30.1663 -154.02 2.36094 177.25
lowerback -27.8208 -1.93374 -5.81964
upperback -0.715671 0.0813009 -1.20841
thorax 14.0218 -0.0628874 1.9616
lowerneck -0.496226 -0.223554 -5.18425
upperneck 8.19905 -0.465333 10.7566
head 2.52605 0.136826 4.10508
rclavicle 1.2921e-015 4.6118e-014
rhumerus -37.025 -18.3761 -79.0016
rradius 31.0608
rwrist -1.14115
rhand -8.58092 -54.4485
rfingers 7.12502
rthumb 17.3498 -83.6941
lclavicle 1.2921e-015 4.6118e-014
lhumerus -30.5815 8.81033 78.0834
lradius 20.904
lwrist -6.77813
lhand -22.0646 -9.57559
lfingers 7.12502
lthumb 4.34641 20.3598
rfemur -21.5621 6.13784 21.3715
rtibia 11.4307
rfoot -24.4181 -5.59659
rtoes -29.122
lfemur -44.3218 -10.2673 -17.9243
ltibia 51.2396
lfoot -6.34117 3.03103
ltoes -26.2478
202
root 23.3643 16.2274 30.1311 -154.2 2.63739 177.389
lowerback -27.8842 -1.74669 -5.65314
upperback -0.571952 0.262116 -1.22016
thorax 14.2061 0.0119375 1.92485
lowerneck -0.523058 -0.224095 -5.22035
upperneck 8.24596 -0.467536 10.792
head 2.54452 0.138529 4.12261
rclavicle -1.49089e-015 -1.66979e-014
rhumerus -36.8375 -18.4413 -78.9482
rradius 30.8288
rwrist -0.6007
rhand -8.72552 -54.0326
rfingers 7.12502
rthumb 17.2106 -83.2904
lclavicle -1.49089e-015 -1.66979e-014
lhumerus -30.5589 8.39492 78.3704
lradius 21.2853
lwrist -6.17926
lhand -21.7262 -9.73049
lfingers 7.12502
lthumb 4.67316 20.198
rfemur -21.0447 5.35466 21.614
rtibia 10.927
rfoot -24.33 -4.55402
rtoes -29.2086
lfemur -44.8976 -9.9487 -17.99
ltibia 52.5379
lfoot -6.41274 3.19517
ltoes -23.5956
203
root 23.3706 16.221 30.1058 -154.119 2.71387 177.426
lowerback -28.0158 -1.6521 -5.58774
upperback -0.510512 0.376663 -1.24683
thorax 14.3324 0.0619141 1.9032
lowerneck -0.546453 -0.224215 -5.26995
upperneck 8.21614 -0.467414 10.8117
head 2.5396 0.136603 4.13672
rclavicle -5.26779e-015 2.26615e-014
rhumerus -36.6557 -18.607 -78.836
rradius 30.5499
rwrist -0.122893
rhand -8.85183 -53.2266
rfingers 7.12502
rthumb 17.0891 -82.495
lclavicle -5.26779e-015 2.26615e-014
lhumerus -30.4765 8.13004 78.6024
lradius 21.5541
lwrist -5.89806
lhand -21.4685 -9.33708
lfingers 7.12502
lthumb 4.92199 20.5857
rfemur -20.9213 5.5542 21.6388
rtibia 10.7323
rfoot -24.3879 -4.56248
rtoes -29.1326
lfemur -45.8617 -9.74014 -18.0069
ltibia 53.692
lfoot -6.16608 2.92728
ltoes -16.8344
204
root 23.3781 16.2166 30.0789 -154.13 2.78922 177.456
lowerback -27.9617 -1.58549 -5.59938
upperback -0.492923 0.455706 -1.23003
thorax 14.3214 0.0932037 1.95748
lowerneck -0.597623 -0.108215 -5.34944
upperneck 8.33254 -0.309695 10.7027
head 2.56971 0.211632 4.12134
rclavicle 4.07509e-015 9.93923e-015
rhumerus -36.6184 -18.3223 -78.8575
rradius 30.603
rwrist -0.237727
rhand -9.15682 -53.4614
rfingers 7.12502
rthumb 16.7955 -82.755
lclavicle 4.07509e-015 9.93923e-015
lhumerus -30.5721 8.05077 78.7792
lradius 21.8527
lwrist -5.89663
lhand -22.507 -10.7639
lfingers 7.12502
lthumb 3.91918 19.1798
rfemur -20.9112 5.72187 21.6832
rtibia 11.0113
rfoot -24.6493 -4.56614
rtoes -29.0193
lfemur -46.679 -9.40454 -18.0748
ltibia 54.7058
lfoot -5.62069 2.69633
ltoes -10.9663
205
root 23.3861 16.2121 30.0485 -154.235 2.98837 177.395
lowerback -27.8777 -1.49513 -5.70028
upperback -0.444171 0.601778 -1.27797
thorax 14.3268 0.148927 2.01528
lowerneck -0.808823 0.0277244 -5.37423
upperneck 8.62777 -0.126584 10.5608
head 2.6776 0.309548 4.09012
rclavicle 8.74653e-015 -1.55052e-014
rhumerus -36.5611 -18.1746 -78.8808
rradius 30.5949
rwrist -0.27522
rhand -9.32992 -53.2132
rfingers 7.12502
rthumb 16.6288 -82.5208
lclavicle 8.74653e-015 -1.55052e-014
lhumerus -30.6865 7.72364 78.9963
lradius 22.2649
lwrist -5.55831
lhand -22.4869 -10.8816
lfingers 7.12502
lthumb 3.93857 19.0618
rfemur -20.6804 5.89962 21.6023
rtibia 11.0189
rfoot -24.7622 -4.54974
rtoes -28.8779
lfemur -47.2856 -8.96141 -18.3644
ltibia 55.5452
lfoot -5.6427 3.01807
ltoes -11.5209
206
root 23.3947 16.2085 30.0168 -154.291 3.12306 177.355
lowerback -27.8809 -1.4036 -5.7373
upperback -0.411848 0.746992 -1.36228
thorax 14.356 0.212279 1.99897
lowerneck -0.863287 0.159396 -5.39261
upperneck 8.89916 0.0529076 10.4694
head 2.75267 0.405879 4.073
rclavicle -4.27387e-015 6.71892e-014
rhumerus -36.4656 -18.3211 -78.8554
rradius 30.4197
rwrist -0.0362674
rhand -9.08847 -52.3628
rfingers 7.12502
rthumb 16.8613 -81.6508
lclavicle -4.27387e-015 6.71892e-014
lhumerus -30.7584 7.36072 79.1486
lradius 22.59
lwrist -5.18688
lhand -22.8135 -10.4704
lfingers 7.12502
lthumb 3.62319 19.4785
rfemur -20.4162 6.12824 21.5724
rtibia 10.8964
rfoot -24.8621 -4.7332
rtoes -29.0418
lfemur -47.9594 -8.73758 -18.4468
ltibia 56.0634
lfoot -6.39669 3.63764
ltoes -14.3244
207
root 23.4052 16.2073 29.9858 -154.256 3.07952 177.38
lowerback -27.8777 -1.3701 -5.7258
upperback -0.441053 0.796423 -1.39756
thorax 14.3181 0.240242 1.97344
lowerneck -0.768523 -0.0144704 -5.30895
upperneck 8.83718 -0.185416 10.6274
head 2.73753 0.296659 4.10108
rclavicle -3.97569e-015 1.39149e-014
rhumerus -36.3766 -18.4121 -78.8438
rradius 30.2289
rwrist 0.106004
rhand -9.02944 -51.8343
rfingers 7.12502
rthumb 16.9181 -81.1174
lclavicle -3.97569e-015 1.39149e-014
lhumerus -30.8742 7.05072 79.2592
lradius 22.8204
lwrist -4.98713
lhand -22.1651 -10.6764
lfingers 7.12502
lthumb 4.2493 19.261
rfemur -20.2103 6.2954 21.6585
rtibia 10.7332
rfoot -24.9154 -5.00774
rtoes -29.1584
lfemur -48.745 -8.58253 -18.4009
ltibia 56.4938
lfoot -7.18396 3.88108
ltoes -15.9106
208
root 23.4147 16.2057 29.9557 -154.193 3.0653 177.285
lowerback -27.8929 -1.395 -5.89339
upperback -0.422616 0.819767 -1.39351
thorax 14.3417 0.238395 2.07772
lowerneck -0.830083 -0.0731511 -5.34221
upperneck 8.83356 -0.266711 10.6814
head 2.75328 0.258347 4.12158
rclavicle -2.28602e-015 5.96354e-015
rhumerus -36.2123 -18.2138 -78.869
rradius 30.1979
rwrist -0.0652018
rhand -9.23974 -51.6817
rfingers 7.12502
rthumb 16.7157 -80.9821
lclavicle -2.28602e-015 5.96354e-015
lhumerus -30.8107 6.74675 79.4853
lradius 22.9567
lwrist -4.69291
lhand -22.135 -10.8527
lfingers 7.12502
lthumb 4.27843 19.0841
rfemur -20.0787 6.55275 21.5636
rtibia 10.5899
rfoot -24.8825 -5.20217
rtoes -28.7695
lfemur -49.5102 -8.3634 -18.5277
ltibia 56.6975
lfoot -7.59131 4.08951
ltoes -16.4084
